<svg id="Lag_4" data-name="Lag 4" xmlns="http://www.w3.org/2000/svg" xmlns:xlink="http://www.w3.org/1999/xlink" viewBox="0 0 392.9 650.47"><defs><style>.cls-1{fill:#020202;opacity:0.28;}.cls-2{fill:#353434;}.cls-3{fill:#fff;stroke:#000;stroke-miterlimit:10;stroke-width:0.25px;}.cls-4{fill:#474747;}.cls-5{fill:#605f5f;}.cls-6{fill:#777676;}.cls-7{fill:#939393;}.cls-8{fill:#a0a0a0;}.cls-9{fill:#c6c6c6;}.cls-10{fill:#9b9a9a;}</style></defs><image width="1000" height="1333" transform="matrix(0.1, 0, 0, 0.12, 235.47, 15.22)" xlink:href="himmel_erstatning.png"/><polygon class="cls-1" points="373.24 289.03 376.35 460.71 275.05 465.19 275.05 451.27 312.77 306.1 373.24 289.03"/><path class="cls-1" d="M587.55,667.49s210.61-62.9,241.58-87.55c0,0,122.73-72,62.51-102.39l-101.79,4.51s25.29,22.17-50.65,64.49l-159,70.09Z" transform="translate(-515.37 -17.02)"/><polygon class="cls-2" points="334.65 173.61 347.04 177.77 345.27 0 330.66 13.51 334.65 173.61"/><polygon class="cls-3" points="365.99 179.32 245.77 182.95 238.51 176.73 334.9 172.58 365.99 179.32"/><polygon class="cls-3" points="376.35 209.89 365.99 204.19 245.25 204.19 245.25 209.89 376.35 209.89"/><polygon class="cls-3" points="373.24 232.69 245.25 234.77 240.76 241.8 373.24 241.8 373.24 232.69"/><polygon class="cls-3" points="373.24 260.16 245.25 260.16 233.33 269.49 365.99 272.08 373.24 260.16"/><polygon class="cls-3" points="365.99 295.4 233.33 292.29 218.3 301.1 349.41 307.31 365.99 295.4"/><polygon class="cls-3" points="352 331.15 218.65 325.97 198.09 333.74 327.75 345.66 352 331.15"/><polygon class="cls-3" points="200.69 360.69 326.09 371.57 295.51 385.56 176.33 366.98 200.69 360.69"/><polygon class="cls-3" points="176.33 396.44 292.15 418.21 247.84 429.09 148.87 402.66 176.33 396.44"/><polygon class="cls-3" points="245.25 456.55 148.87 431.16 114.15 438.42 198.09 470.03 245.25 456.55"/><polygon class="cls-3" points="198.09 506.82 114.15 466.4 73.73 470.03 135.91 520.81 198.09 506.82"/><polygon class="cls-3" points="135.91 560.71 77.36 509.41 38.49 514.59 73.73 571.59 135.91 560.71"/><polygon class="cls-3" points="73.73 612.53 38.49 552.42 0.15 555.01 10.51 617.71 73.73 612.53"/><polygon points="245.77 182.95 245.25 204.19 238.51 199.77 238.51 176.73 245.77 182.95"/><polygon points="373.24 260.16 365.99 272.08 365.99 295.4 373.24 290.24 373.24 260.16"/><polygon points="352 332.69 349.41 307.71 365.99 295.22 367.78 329.29 352 332.69"/><polygon points="328.48 375.8 352 363.11 352 331.15 327.75 345.66 328.48 375.8"/><polygon points="326.09 406.09 326.09 371.57 294.39 385.56 290.89 422.05 326.09 406.09"/><polygon points="247.84 429.09 247.84 460.53 292.15 447.43 292.15 418.21 247.84 429.09"/><polygon points="245.25 496.14 245.25 456.55 198.09 470.03 198.09 506.82 245.25 496.14"/><polygon points="135.91 560.71 198.09 549.36 198.09 506.82 135.91 520.81 135.91 560.71"/><polygon points="135.91 598.89 135.91 560.71 73.73 571.59 73.73 612.53 135.91 598.89"/><polygon points="10.51 617.71 13.69 650.47 73.73 650.47 73.73 612.53 10.51 617.71"/><polygon class="cls-2" points="245.77 182.95 245.25 204.19 365.99 204.19 365.99 179.32 245.77 182.95"/><polygon class="cls-4" points="245.25 209.89 245.25 234.77 373.24 232.69 376.35 209.89 245.25 209.89"/><polygon class="cls-5" points="240.76 241.8 245.25 260.16 373.24 260.16 373.24 241.8 240.76 241.8"/><polygon class="cls-6" points="233.33 269.49 233.33 292.29 365.99 295.4 365.99 272.08 233.33 269.49"/><polygon class="cls-7" points="218.3 301.1 218.65 325.97 352 331.15 349.41 307.31 218.3 301.1"/><polygon class="cls-7" points="198.09 333.74 200.69 360.69 326.09 371.57 328.48 375.8 327.75 345.66 198.09 333.74"/><polygon class="cls-7" points="295.51 385.56 292.15 418.21 176.33 396.44 176.33 366.98 295.51 385.56"/><polygon class="cls-8" points="247.84 429.09 247.84 460.53 245.25 456.55 148.87 431.16 148.87 402.66 247.84 429.09"/><polygon class="cls-9" points="114.15 438.42 114.15 466.4 198.09 506.82 198.09 470.03 114.15 438.42"/><polygon class="cls-9" points="73.73 470.03 77.36 509.41 135.91 560.71 135.91 520.81 73.73 470.03"/><polygon class="cls-9" points="38.49 514.59 38.49 552.42 73.73 612.53 73.73 571.59 38.49 514.59"/><polygon class="cls-7" points="0.15 555.01 0.15 576.47 13.69 650.47 10.51 617.71 0.15 555.01"/><rect class="cls-7" x="326.09" y="371.57" width="2.4" height="4.23"/><polygon class="cls-10" points="235.47 15.22 235.47 0 345.27 0 330.66 13.51 235.47 15.22"/></svg>