<svg id="Lag_8" data-name="Lag 8" xmlns="http://www.w3.org/2000/svg" viewBox="0 0 1366 768"><defs><style>.cls-1,.cls-3{fill:#828282;}.cls-2,.cls-5{fill:#a0a0a0;}.cls-3,.cls-4,.cls-5{stroke:#000;stroke-miterlimit:10;stroke-width:0.25px;}.cls-4{fill:#fff;}</style></defs><polygon class="cls-1" points="375.73 86.46 664.95 79.64 614.48 135.67 375.73 139.46 375.73 86.46"/><polygon class="cls-2" points="618.76 304.51 674.79 396.87 664.95 79.64 614.48 135.67 618.76 304.51"/><rect class="cls-2" x="618.76" y="455.63" width="56.03" height="33.61"/><polygon class="cls-3" points="694.47 424.51 473 424.51 460.52 455.63 681.22 455.63 694.47 424.51"/><polygon class="cls-4" points="375.73 199.65 375.73 243.56 474.75 424.51 694.47 424.51 556.76 193.59 375.73 199.65"/><polygon class="cls-5" points="375.73 300.34 375.73 243.56 474.75 424.51 460.52 455.63 375.73 300.34"/><polygon points="375.73 489.24 375.73 300.34 460.52 455.63 618.76 455.63 618.76 489.24 375.73 489.24"/><polygon points="375.73 199.65 556.76 193.59 618.58 297.24 614.48 135.67 375.73 139.46 375.73 199.65"/></svg>